<?xml version="1.0" encoding="utf-8"?>
<!-- Generator: Adobe Illustrator 24.3.0, SVG Export Plug-In . SVG Version: 6.00 Build 0)  -->
<svg version="1.1" id="Camada_1" xmlns="http://www.w3.org/2000/svg" xmlns:xlink="http://www.w3.org/1999/xlink" x="0px" y="0px"
	 viewBox="0 0 2267.72 2267.72" style="enable-background:new 0 0 2267.72 2267.72;" xml:space="preserve">
<style type="text/css">
	.st0{fill:#0062CC;stroke:#696969;stroke-width:2.1266;stroke-miterlimit:10;}
</style>
<g>
	<path class="st0" d="M1413.98,940.84c0,130.13,0,258.4,0,387.93c6.48,0.29,12.69,0.79,18.9,0.8c61.32,0.17,122.74-1.99,183.93,0.89
		c89.75,4.23,159.53,46.83,210.26,120.42c31.38,45.52,47.77,96.42,46.79,151.76c-1.3,73.38-29.06,136.21-80.25,188.72
		c-47.09,48.3-104.24,77.51-171.36,82.09c-99.05,6.75-181.41-27.81-241.39-108.78c-35.14-47.44-52.53-101.32-52.39-160.63
		c0.14-58.84,0.11-117.68,0.15-176.52c0-3.47,0-6.95,0-11.22c-130,0-259.14,0-389,0c-0.16,3.66-0.42,6.74-0.42,9.82
		c0.04,59.19,1.1,118.41-0.04,177.58c-2.08,108.37-51.19,189.77-145.83,242.08c-47.4,26.2-99.53,33.18-153.33,26.83
		c-70.95-8.38-129.94-39.33-176.92-93.28c-109.43-125.68-82.04-316.74,58.41-407.16c43.35-27.91,90.46-42.79,142.29-42.57
		c57.78,0.25,115.55-0.04,173.33-0.09c4.52,0,9.04,0,14.78,0c0-24.4-0.09-47.37,0.06-70.33c0.04-6.53-4.22-6.6-8.98-7.79
		c-10.83-2.72-22.64-4.39-31.84-10.07c-19.01-11.73-18.31-36.1,1.31-46.66c11.48-6.17,24.97-8.6,38.54-13.04
		c0-33.55,0-68.56,0-103.77c-8.56-1.08-16.79-1.15-24.39-3.36c-6.95-2.02-14.16-5.24-19.61-9.87c-16.14-13.7-9.82-38.43,11.89-46.5
		c7.49-2.78,15.94-2.85,23.7-5.07c3.34-0.95,8.53-4.13,8.6-6.42c0.66-21.5,0.39-43.03,0.39-65.8c-5.16,0-8.94,0-12.72,0
		c-60.61,0.01-121.23,0.17-181.84-0.01c-130.59-0.38-244-100.03-261.42-229.51c-17.04-126.7,54.48-250.07,172.72-297.93
		c160.26-64.87,338.09,32.45,367.62,202.69c5.57,32.13,3.57,65.68,4.02,98.58c0.58,42.17,0.09,84.36,0.1,126.54
		c0,3.13,0.31,6.26,0.51,10.01c129.01,0,257.48,0,386.76,0c0-27.7-0.14-55.22,0.03-82.73c0.26-41.81-1.68-83.81,1.63-125.39
		c7.59-95.36,54.39-168.01,136.77-215.92c91.82-53.4,209.69-43.26,295.46,22.89c61.38,47.34,100.44,109.19,110.52,185.85
		c13.77,104.78-22.19,190.72-108.11,254c-48.67,35.84-103.57,52.01-164.07,51.13c-58.12-0.85-116.26-0.19-174.39-0.2
		C1421.72,940.84,1418.28,940.84,1413.98,940.84z M936.34,1260.47c0,16.98-0.04,33.54,0.01,50.11c0.05,16.44,2.37,18.82,19.27,18.89
		c28.69,0.12,57.39,0.05,86.08,0.05c88.91,0.01,177.83,0.1,266.74-0.04c17.64-0.03,19.81-2.62,19.8-19.65
		c-0.03-82.89-0.07-165.78-0.08-248.66c0-34.36,0.19-68.72,0.05-103.08c-0.06-13.83-3.02-17.23-14.3-17.23
		c-120.8-0.05-241.59-0.05-362.39,0c-10.96,0-15.68,4.6-15.89,15.26c-0.23,12.04,0.24,24.1-0.35,36.12
		c-0.47,9.71,2.1,14.17,13.05,15.3c18.93,1.95,31.44,16.14,33.33,34.46c1.99,19.26-6.24,35.04-22.72,41.32
		c-6.74,2.56-14.32,2.89-22.52,4.43c0,29.82,0,60.06,0,90.11c32.46,6.65,46.57,21.07,45.3,45.54
		C980.55,1245.98,966.92,1257.62,936.34,1260.47z M1413.9,1415.63c-0.3,4-0.74,7.08-0.74,10.16c-0.02,60.61-0.4,121.22,0.32,181.82
		c0.19,15.76,1.93,32.03,6.26,47.11c28.8,100.35,131.61,150.14,229.66,123.27c83.58-22.91,145.11-104.41,133.91-198.96
		c-10.3-86.96-88.67-166.16-189.32-163.55c-55.25,1.43-110.58,0.19-165.87,0.15C1423.61,1415.63,1419.09,1415.63,1413.9,1415.63z
		 M743.42,1415.59c0,0.05,0,0.09,0,0.14c-18.78,0-37.56-0.24-56.34,0.07c-16.28,0.27-32.82-0.52-48.78,2.07
		c-109.29,17.72-179.7,135.09-144.5,239.91c42.64,126.99,197.94,168.81,298.03,79.93c37.11-32.95,59.25-74.24,60.12-124.41
		c1.07-62.34-0.08-124.72,0.16-187.07c0.03-8.53-2.72-10.87-10.89-10.78C808.61,1415.8,776.01,1415.59,743.42,1415.59z
		 M1414.21,851.82c5.23,0,8.75,0,12.26,0c57.07,0.01,114.13,0.31,171.19-0.18c15.47-0.13,31.13-1.54,46.35-4.31
		c74.98-13.64,137.54-86.9,140.28-162.34c2.45-67.54-24.11-121.76-76.85-162.06c-55.11-42.11-117.54-52.25-181.11-23.56
		c-65.24,29.45-103.93,82.25-110.64,154.54c-3.23,34.81-1.27,70.11-1.45,105.19C1414.08,789.54,1414.21,819.96,1414.21,851.82z
		 M852.28,851.82c0-5.35,0-9.19,0-13.02c-0.01-56.69,0.09-113.38-0.12-170.07c-0.04-10.59-0.18-21.39-2.14-31.74
		c-20.4-107.8-126.96-174.45-230.33-146.11C536.05,513.8,475.33,602.6,485.63,690.62c9.85,84.1,73.93,150.78,158.15,159.23
		c29.49,2.96,59.42,1.71,89.15,1.91C772.21,852.02,811.49,851.82,852.28,851.82z"/>
</g>
</svg>
