<?xml version="1.0" encoding="utf-8"?>
<!-- Generator: Adobe Illustrator 24.3.0, SVG Export Plug-In . SVG Version: 6.00 Build 0)  -->
<svg version="1.1" id="Camada_1" xmlns="http://www.w3.org/2000/svg" xmlns:xlink="http://www.w3.org/1999/xlink" x="0px" y="0px"
	 viewBox="0 0 2267.72 2267.72" style="enable-background:new 0 0 2267.72 2267.72;" xml:space="preserve">
<style type="text/css">
	.st0{fill:#0062CC;stroke:#696969;stroke-miterlimit:10;}
</style>
<g>
	<path class="st0" d="M1265.14,1042.69c0,61.19,0,121.51,0,182.42c3.05,0.14,5.97,0.37,8.89,0.38c28.83,0.08,57.72-0.94,86.49,0.42
		c42.2,1.99,75.02,22.02,98.87,56.62c14.76,21.4,22.46,45.34,22,71.36c-0.61,34.51-13.67,64.05-37.74,88.74
		c-22.14,22.71-49.02,36.45-80.58,38.6c-46.58,3.18-85.31-13.08-113.51-51.15c-16.52-22.31-24.7-47.65-24.64-75.54
		c0.06-27.67,0.05-55.34,0.07-83.01c0-1.63,0-3.27,0-5.28c-61.13,0-121.86,0-182.92,0c-0.08,1.72-0.2,3.17-0.2,4.62
		c0.02,27.84,0.52,55.68-0.02,83.5c-0.98,50.96-24.07,89.24-68.58,113.84c-22.29,12.32-46.8,15.6-72.1,12.61
		c-33.37-3.94-61.1-18.49-83.19-43.87c-51.46-59.1-38.58-148.94,27.47-191.46c20.39-13.12,42.54-20.12,66.91-20.02
		c27.17,0.12,54.34-0.02,81.51-0.04c2.13,0,4.25,0,6.95,0c0-11.47-0.04-22.27,0.03-33.07c0.02-3.07-1.98-3.1-4.22-3.66
		c-5.09-1.28-10.65-2.06-14.97-4.73c-8.94-5.52-8.61-16.98,0.61-21.94c5.4-2.9,11.74-4.04,18.12-6.13c0-15.78,0-32.24,0-48.8
		c-4.02-0.51-7.89-0.54-11.47-1.58c-3.27-0.95-6.66-2.47-9.22-4.64c-7.59-6.44-4.62-18.07,5.59-21.86c3.52-1.31,7.5-1.34,11.14-2.38
		c1.57-0.45,4.01-1.94,4.05-3.02c0.31-10.11,0.18-20.23,0.18-30.94c-2.43,0-4.2,0-5.98,0c-28.5,0-57,0.08-85.51,0
		c-61.41-0.18-114.74-47.04-122.93-107.92c-8.01-59.58,25.62-117.59,81.22-140.1c75.36-30.5,158.98,15.26,172.87,95.31
		c2.62,15.11,1.68,30.88,1.89,46.36c0.27,19.83,0.04,39.67,0.05,59.5c0,1.47,0.15,2.94,0.24,4.71c60.66,0,121.07,0,181.87,0
		c0-13.03-0.07-25.96,0.02-38.9c0.12-19.66-0.79-39.41,0.77-58.96c3.57-44.84,25.57-79,64.31-101.53
		c43.18-25.11,98.6-20.34,138.94,10.76c28.86,22.26,47.23,51.34,51.97,87.4c6.47,49.27-10.43,89.69-50.84,119.44
		c-22.88,16.85-48.7,24.46-77.15,24.04c-27.33-0.4-54.67-0.09-82.01-0.09C1268.78,1042.69,1267.16,1042.69,1265.14,1042.69z
		 M1040.54,1192.99c0,7.98-0.02,15.77,0,23.56c0.02,7.73,1.12,8.85,9.06,8.88c13.49,0.05,26.98,0.02,40.48,0.02
		c41.81,0,83.62,0.05,125.43-0.02c8.3-0.01,9.31-1.23,9.31-9.24c-0.02-38.98-0.03-77.95-0.04-116.93c0-16.16,0.09-32.31,0.02-48.47
		c-0.03-6.5-1.42-8.1-6.72-8.1c-56.8-0.03-113.6-0.03-170.41,0c-5.15,0-7.37,2.16-7.47,7.18c-0.11,5.66,0.11,11.33-0.16,16.98
		c-0.22,4.56,0.99,6.66,6.14,7.2c8.9,0.92,14.78,7.59,15.67,16.21c0.94,9.06-2.93,16.48-10.68,19.43
		c-3.17,1.21-6.73,1.36-10.59,2.08c0,14.02,0,28.24,0,42.37c15.26,3.13,21.9,9.91,21.3,21.42
		C1061.33,1186.18,1054.92,1191.65,1040.54,1192.99z M1265.1,1265.95c-0.14,1.88-0.35,3.33-0.35,4.78c-0.01,28.5-0.19,57,0.15,85.5
		c0.09,7.41,0.91,15.06,2.95,22.15c13.54,47.19,61.89,70.6,108,57.96c39.3-10.77,68.24-49.1,62.97-93.56
		c-4.84-40.89-41.7-78.13-89.02-76.91c-25.98,0.67-52,0.09-78,0.07C1269.67,1265.95,1267.55,1265.95,1265.1,1265.95z
		 M949.82,1265.93c0,0.02,0,0.04,0,0.06c-8.83,0-17.66-0.11-26.49,0.03c-7.66,0.13-15.43-0.24-22.94,0.97
		c-51.39,8.33-84.5,63.52-67.95,112.82c20.05,59.72,93.08,79.38,140.14,37.59c17.45-15.49,27.86-34.91,28.27-58.5
		c0.5-29.31-0.04-58.65,0.07-87.97c0.02-4.01-1.28-5.11-5.12-5.07C980.48,1266.03,965.15,1265.93,949.82,1265.93z M1265.25,1000.83
		c2.46,0,4.11,0,5.77,0c26.83,0,53.67,0.15,80.5-0.08c7.28-0.06,14.64-0.72,21.8-2.02c35.26-6.42,64.68-40.86,65.96-76.34
		c1.15-31.76-11.34-57.26-36.14-76.2c-25.91-19.8-55.27-24.57-85.16-11.08c-30.68,13.85-48.87,38.68-52.03,72.67
		c-1.52,16.37-0.6,32.97-0.68,49.47C1265.19,971.55,1265.25,985.85,1265.25,1000.83z M1001.01,1000.83c0-2.51,0-4.32,0-6.12
		c0-26.66,0.04-53.32-0.06-79.97c-0.02-4.98-0.09-10.06-1.01-14.93c-9.59-50.69-59.7-82.03-108.31-68.71
		c-39.33,10.78-67.88,52.54-63.04,93.93c4.63,39.55,34.77,70.9,74.37,74.88c13.87,1.39,27.94,0.8,41.92,0.9
		C963.36,1000.93,981.83,1000.83,1001.01,1000.83z"/>
</g>
</svg>
