<svg xmlns="http://www.w3.org/2000/svg" width="1120" height="700" viewBox="0 0 1120 700">
<defs><marker id="arrow" markerWidth="8" markerHeight="8" refX="7" refY="3.5" orient="auto"><polygon points="0 0, 8 3.5, 0 7" fill="#64748b"/></marker></defs>
<rect width="100%" height="100%" fill="#0f172a"/>
<text x="30" y="30" fill="#e2e8f0" font-size="22" font-family="Arial" font-weight="bold">Fluxo de navegação — Planner Pro</text>
<line x1="520" y1="52" x2="520" y2="78" stroke="#64748b" stroke-width="1.8" marker-end="url(#arrow)"/>
<line x1="455" y1="100" x2="235" y2="170" stroke="#64748b" stroke-width="1.8" marker-end="url(#arrow)"/>
<text x="345.0" y="130.0" fill="#94a3b8" font-size="11" font-family="Arial" text-anchor="middle">Não</text>
<line x1="365" y1="170" x2="455" y2="100" stroke="#64748b" stroke-width="1.8" marker-end="url(#arrow)"/>
<line x1="520" y1="122" x2="520" y2="148" stroke="#64748b" stroke-width="1.8" marker-end="url(#arrow)"/>
<text x="520.0" y="130.0" fill="#94a3b8" font-size="11" font-family="Arial" text-anchor="middle">Sim</text>
<line x1="455" y1="170" x2="235" y2="250" stroke="#64748b" stroke-width="1.8" marker-end="url(#arrow)"/>
<text x="345.0" y="205.0" fill="#94a3b8" font-size="11" font-family="Arial" text-anchor="middle">Não</text>
<line x1="235" y1="250" x2="105" y2="320" stroke="#64748b" stroke-width="1.8" marker-end="url(#arrow)"/>
<text x="170.0" y="280.0" fill="#94a3b8" font-size="11" font-family="Arial" text-anchor="middle">Sim</text>
<line x1="365" y1="250" x2="285" y2="320" stroke="#64748b" stroke-width="1.8" marker-end="url(#arrow)"/>
<text x="325.0" y="280.0" fill="#94a3b8" font-size="11" font-family="Arial" text-anchor="middle">Não</text>
<line x1="285" y1="320" x2="195" y2="390" stroke="#64748b" stroke-width="1.8" marker-end="url(#arrow)"/>
<text x="240.0" y="350.0" fill="#94a3b8" font-size="11" font-family="Arial" text-anchor="middle">Não</text>
<line x1="325" y1="390" x2="365" y2="390" stroke="#64748b" stroke-width="1.8" marker-end="url(#arrow)"/>
<text x="345.0" y="385.0" fill="#94a3b8" font-size="11" font-family="Arial" text-anchor="middle">Get Started</text>
<line x1="415" y1="320" x2="365" y2="390" stroke="#64748b" stroke-width="1.8" marker-end="url(#arrow)"/>
<text x="390.0" y="350.0" fill="#94a3b8" font-size="11" font-family="Arial" text-anchor="middle">Sim</text>
<line x1="430" y1="412" x2="430" y2="438" stroke="#64748b" stroke-width="1.8" marker-end="url(#arrow)"/>
<line x1="365" y1="460" x2="255" y2="530" stroke="#64748b" stroke-width="1.8" marker-end="url(#arrow)"/>
<text x="310.0" y="490.0" fill="#94a3b8" font-size="11" font-family="Arial" text-anchor="middle">login</text>
<line x1="430" y1="482" x2="430" y2="508" stroke="#64748b" stroke-width="1.8" marker-end="url(#arrow)"/>
<text x="430.0" y="490.0" fill="#94a3b8" font-size="11" font-family="Arial" text-anchor="middle">cadastro</text>
<line x1="495" y1="390" x2="475" y2="530" stroke="#64748b" stroke-width="1.8" marker-end="url(#arrow)"/>
<line x1="385" y1="530" x2="365" y2="600" stroke="#64748b" stroke-width="1.8" marker-end="url(#arrow)"/>
<line x1="430" y1="552" x2="430" y2="578" stroke="#64748b" stroke-width="1.8" marker-end="url(#arrow)"/>
<line x1="475" y1="530" x2="365" y2="600" stroke="#64748b" stroke-width="1.8" marker-end="url(#arrow)"/>
<line x1="495" y1="600" x2="575" y2="250" stroke="#64748b" stroke-width="1.8" marker-end="url(#arrow)"/>
<text x="535.0" y="420.0" fill="#94a3b8" font-size="11" font-family="Arial" text-anchor="middle">Sim</text>
<line x1="430" y1="622" x2="430" y2="368" stroke="#64748b" stroke-width="1.8" marker-end="url(#arrow)"/>
<text x="430.0" y="490.0" fill="#94a3b8" font-size="11" font-family="Arial" text-anchor="middle">Não</text>
<line x1="585" y1="170" x2="575" y2="250" stroke="#64748b" stroke-width="1.8" marker-end="url(#arrow)"/>
<text x="580.0" y="205.0" fill="#94a3b8" font-size="11" font-family="Arial" text-anchor="middle">Sim</text>
<line x1="705" y1="250" x2="715" y2="320" stroke="#64748b" stroke-width="1.8" marker-end="url(#arrow)"/>
<line x1="715" y1="320" x2="575" y2="390" stroke="#64748b" stroke-width="1.8" marker-end="url(#arrow)"/>
<line x1="715" y1="320" x2="695" y2="390" stroke="#64748b" stroke-width="1.8" marker-end="url(#arrow)"/>
<line x1="845" y1="320" x2="815" y2="390" stroke="#64748b" stroke-width="1.8" marker-end="url(#arrow)"/>
<line x1="715" y1="320" x2="575" y2="460" stroke="#64748b" stroke-width="1.8" marker-end="url(#arrow)"/>
<line x1="715" y1="320" x2="695" y2="460" stroke="#64748b" stroke-width="1.8" marker-end="url(#arrow)"/>
<line x1="845" y1="320" x2="815" y2="460" stroke="#64748b" stroke-width="1.8" marker-end="url(#arrow)"/>
<line x1="845" y1="320" x2="935" y2="460" stroke="#64748b" stroke-width="1.8" marker-end="url(#arrow)"/>
<line x1="715" y1="320" x2="575" y2="530" stroke="#64748b" stroke-width="1.8" marker-end="url(#arrow)"/>
<line x1="715" y1="320" x2="695" y2="530" stroke="#64748b" stroke-width="1.8" marker-end="url(#arrow)"/>
<line x1="845" y1="320" x2="815" y2="530" stroke="#64748b" stroke-width="1.8" marker-end="url(#arrow)"/>
<line x1="715" y1="320" x2="575" y2="600" stroke="#64748b" stroke-width="1.8" marker-end="url(#arrow)"/>
<line x1="715" y1="320" x2="695" y2="600" stroke="#64748b" stroke-width="1.8" marker-end="url(#arrow)"/>
<line x1="845" y1="320" x2="815" y2="600" stroke="#64748b" stroke-width="1.8" marker-end="url(#arrow)"/>
<line x1="705" y1="250" x2="935" y2="320" stroke="#64748b" stroke-width="1.8" marker-end="url(#arrow)"/>
<line x1="935" y1="320" x2="455" y2="170" stroke="#64748b" stroke-width="1.8" marker-end="url(#arrow)"/>
<rect x="455.0" y="8.0" width="130" height="44" rx="10" fill="#1e293b" stroke="#22d3ee" stroke-width="1.3"/>
<text x="520" y="34" fill="#e2e8f0" font-size="12" font-family="Arial" text-anchor="middle">App inicia</text>
<rect x="455.0" y="78.0" width="130" height="44" rx="10" fill="#1e293b" stroke="#22d3ee" stroke-width="1.3"/>
<text x="520" y="104" fill="#e2e8f0" font-size="12" font-family="Arial" text-anchor="middle">Sessão carregada?</text>
<rect x="235.0" y="148.0" width="130" height="44" rx="10" fill="#1e293b" stroke="#22d3ee" stroke-width="1.3"/>
<text x="300" y="166" fill="#e2e8f0" font-size="12" font-family="Arial" text-anchor="middle">Loading</text>
<text x="300" y="182" fill="#e2e8f0" font-size="12" font-family="Arial" text-anchor="middle">Sincronizando...</text>
<rect x="455.0" y="148.0" width="130" height="44" rx="10" fill="#1e293b" stroke="#22d3ee" stroke-width="1.3"/>
<text x="520" y="174" fill="#e2e8f0" font-size="12" font-family="Arial" text-anchor="middle">Usuário autenticado?</text>
<rect x="235.0" y="228.0" width="130" height="44" rx="10" fill="#1e293b" stroke="#22d3ee" stroke-width="1.3"/>
<text x="300" y="254" fill="#e2e8f0" font-size="12" font-family="Arial" text-anchor="middle">Cadastro concluído?</text>
<rect x="105.0" y="298.0" width="130" height="44" rx="10" fill="#1e293b" stroke="#22d3ee" stroke-width="1.3"/>
<text x="170" y="324" fill="#e2e8f0" font-size="12" font-family="Arial" text-anchor="middle">SuccessScreen</text>
<rect x="285.0" y="298.0" width="130" height="44" rx="10" fill="#1e293b" stroke="#22d3ee" stroke-width="1.3"/>
<text x="350" y="324" fill="#e2e8f0" font-size="12" font-family="Arial" text-anchor="middle">mostrarLogin?</text>
<rect x="195.0" y="368.0" width="130" height="44" rx="10" fill="#1e293b" stroke="#22d3ee" stroke-width="1.3"/>
<text x="260" y="394" fill="#e2e8f0" font-size="12" font-family="Arial" text-anchor="middle">Welcomescreen</text>
<rect x="365.0" y="368.0" width="130" height="44" rx="10" fill="#1e293b" stroke="#22d3ee" stroke-width="1.3"/>
<text x="430" y="394" fill="#e2e8f0" font-size="12" font-family="Arial" text-anchor="middle">Form autenticação</text>
<rect x="365.0" y="438.0" width="130" height="44" rx="10" fill="#1e293b" stroke="#22d3ee" stroke-width="1.3"/>
<text x="430" y="464" fill="#e2e8f0" font-size="12" font-family="Arial" text-anchor="middle">Tipo de formulário</text>
<rect x="255.0" y="508.0" width="130" height="44" rx="10" fill="#1e293b" stroke="#22d3ee" stroke-width="1.3"/>
<text x="320" y="534" fill="#e2e8f0" font-size="12" font-family="Arial" text-anchor="middle">Login e-mail/senha</text>
<rect x="365.0" y="508.0" width="130" height="44" rx="10" fill="#1e293b" stroke="#22d3ee" stroke-width="1.3"/>
<text x="430" y="534" fill="#e2e8f0" font-size="12" font-family="Arial" text-anchor="middle">Cadastro</text>
<rect x="475.0" y="508.0" width="130" height="44" rx="10" fill="#1e293b" stroke="#22d3ee" stroke-width="1.3"/>
<text x="540" y="534" fill="#e2e8f0" font-size="12" font-family="Arial" text-anchor="middle">Login Google</text>
<rect x="365.0" y="578.0" width="130" height="44" rx="10" fill="#1e293b" stroke="#22d3ee" stroke-width="1.3"/>
<text x="430" y="604" fill="#e2e8f0" font-size="12" font-family="Arial" text-anchor="middle">Autenticou?</text>
<rect x="575.0" y="228.0" width="130" height="44" rx="10" fill="#1e293b" stroke="#22d3ee" stroke-width="1.3"/>
<text x="640" y="254" fill="#e2e8f0" font-size="12" font-family="Arial" text-anchor="middle">Dashboard</text>
<rect x="715.0" y="298.0" width="130" height="44" rx="10" fill="#1e293b" stroke="#22d3ee" stroke-width="1.3"/>
<text x="780" y="324" fill="#e2e8f0" font-size="12" font-family="Arial" text-anchor="middle">Menu lateral</text>
<rect x="575.0" y="368.0" width="130" height="44" rx="10" fill="#1e293b" stroke="#22d3ee" stroke-width="1.3"/>
<text x="640" y="394" fill="#e2e8f0" font-size="12" font-family="Arial" text-anchor="middle">Dashboard Geral</text>
<rect x="695.0" y="368.0" width="130" height="44" rx="10" fill="#1e293b" stroke="#22d3ee" stroke-width="1.3"/>
<text x="760" y="394" fill="#e2e8f0" font-size="12" font-family="Arial" text-anchor="middle">Workspace</text>
<rect x="815.0" y="368.0" width="130" height="44" rx="10" fill="#1e293b" stroke="#22d3ee" stroke-width="1.3"/>
<text x="880" y="394" fill="#e2e8f0" font-size="12" font-family="Arial" text-anchor="middle">Constância</text>
<rect x="575.0" y="438.0" width="130" height="44" rx="10" fill="#1e293b" stroke="#22d3ee" stroke-width="1.3"/>
<text x="640" y="464" fill="#e2e8f0" font-size="12" font-family="Arial" text-anchor="middle">Matérias</text>
<rect x="695.0" y="438.0" width="130" height="44" rx="10" fill="#1e293b" stroke="#22d3ee" stroke-width="1.3"/>
<text x="760" y="464" fill="#e2e8f0" font-size="12" font-family="Arial" text-anchor="middle">Ciclo Estudos</text>
<rect x="815.0" y="438.0" width="130" height="44" rx="10" fill="#1e293b" stroke="#22d3ee" stroke-width="1.3"/>
<text x="880" y="464" fill="#e2e8f0" font-size="12" font-family="Arial" text-anchor="middle">Calendário</text>
<rect x="935.0" y="438.0" width="130" height="44" rx="10" fill="#1e293b" stroke="#22d3ee" stroke-width="1.3"/>
<text x="1000" y="464" fill="#e2e8f0" font-size="12" font-family="Arial" text-anchor="middle">To-Do</text>
<rect x="575.0" y="508.0" width="130" height="44" rx="10" fill="#1e293b" stroke="#22d3ee" stroke-width="1.3"/>
<text x="640" y="534" fill="#e2e8f0" font-size="12" font-family="Arial" text-anchor="middle">Estudar Agora</text>
<rect x="695.0" y="508.0" width="130" height="44" rx="10" fill="#1e293b" stroke="#22d3ee" stroke-width="1.3"/>
<text x="760" y="534" fill="#e2e8f0" font-size="12" font-family="Arial" text-anchor="middle">Flashcards</text>
<rect x="815.0" y="508.0" width="130" height="44" rx="10" fill="#1e293b" stroke="#22d3ee" stroke-width="1.3"/>
<text x="880" y="534" fill="#e2e8f0" font-size="12" font-family="Arial" text-anchor="middle">Anotações</text>
<rect x="575.0" y="578.0" width="130" height="44" rx="10" fill="#1e293b" stroke="#22d3ee" stroke-width="1.3"/>
<text x="640" y="604" fill="#e2e8f0" font-size="12" font-family="Arial" text-anchor="middle">Revisões</text>
<rect x="695.0" y="578.0" width="130" height="44" rx="10" fill="#1e293b" stroke="#22d3ee" stroke-width="1.3"/>
<text x="760" y="604" fill="#e2e8f0" font-size="12" font-family="Arial" text-anchor="middle">Histórico</text>
<rect x="815.0" y="578.0" width="130" height="44" rx="10" fill="#1e293b" stroke="#22d3ee" stroke-width="1.3"/>
<text x="880" y="604" fill="#e2e8f0" font-size="12" font-family="Arial" text-anchor="middle">Amizades</text>
<rect x="935.0" y="298.0" width="130" height="44" rx="10" fill="#1e293b" stroke="#22d3ee" stroke-width="1.3"/>
<text x="1000" y="324" fill="#e2e8f0" font-size="12" font-family="Arial" text-anchor="middle">Sair</text>
</svg>